<svg id="Layer_1" data-name="Layer 1" xmlns="http://www.w3.org/2000/svg" viewBox="0 0 474.78 142.15"><defs><style>.cls-1{fill:#4869af;}.cls-2,.cls-5{fill:#4a69b2;}.cls-3{fill:#1b2855;}.cls-4{fill:#f2f5f1;}.cls-5{font-size:72.29px;font-family:MyriadPro-Regular, Myriad Pro;}.cls-6{letter-spacing:0.02em;}.cls-7{letter-spacing:-0.04em;}.cls-8{letter-spacing:0em;}</style></defs><path class="cls-1" d="M695.42,1046.31V979.22A23.57,23.57,0,0,1,719,955.68h63.65a23.57,23.57,0,0,1,23.55,23.54v67.09a23.57,23.57,0,0,1-23.55,23.54H719A23.57,23.57,0,0,1,695.42,1046.31Zm109.43-67.09A22.26,22.26,0,0,0,782.61,957H719a22.27,22.27,0,0,0-22.24,22.24v67.09A22.27,22.27,0,0,0,719,1068.55h63.65a22.26,22.26,0,0,0,22.24-22.24Z" transform="translate(-695.42 -945.77)"/><rect class="cls-2" x="7.28" y="18.91" width="96.17" height="96.17" rx="17.32"/><polygon class="cls-3" points="33.79 65.2 50.02 65.2 50.02 52.44 59.67 43.7 74.37 43.7 87.22 57.87 87.22 73.31 103.46 73.31 103.46 57.08 90.58 57.08 76.74 41.82 76.74 24.28 57.33 24.28 57.33 41.75 49.37 48.97 33.79 48.97 33.79 65.2"/><rect class="cls-3" x="16.1" y="35.91" width="9.21" height="9.21"/><rect class="cls-3" x="85.63" y="35.91" width="9.21" height="9.21"/><rect class="cls-3" x="32.2" y="24.28" width="16.23" height="16.23"/><polygon class="cls-4" points="50.78 93.74 61.37 83.72 75.31 83.72 75.31 67.87 59.46 67.87 59.46 81.47 49.66 90.75 35.61 90.75 22.61 75.79 23.14 75.79 23.14 59.94 7.28 59.94 7.28 75.79 18.71 75.79 31.82 90.88 31.82 109.7 50.78 109.7 50.78 93.74"/><rect class="cls-4" x="61.86" y="90.75" width="15.85" height="15.85"/><rect class="cls-4" x="16.1" y="86.25" width="9" height="9"/><rect class="cls-4" x="84" y="89.67" width="9" height="9"/><text class="cls-5" transform="translate(124.82 60.51)">SE<tspan class="cls-6" x="71.21" y="0">R</tspan><tspan x="111.25" y="0">VE</tspan><tspan class="cls-3"><tspan x="0" y="63.57">SO</tspan><tspan class="cls-7" x="85.45" y="63.57">L</tspan><tspan class="cls-8" x="116.97" y="63.57">UTIONS</tspan></tspan></text></svg>